<?xml version="1.0" encoding="utf-8"?>
<!-- Generator: Adobe Illustrator 22.0.0, SVG Export Plug-In . SVG Version: 6.00 Build 0)  -->
<svg version="1.1" xmlns="http://www.w3.org/2000/svg" xmlns:xlink="http://www.w3.org/1999/xlink" x="0px" y="0px"
	 viewBox="0 0 1440 500" enable-background="new 0 0 1440 500" xml:space="preserve">
<g id="Layer_1">
</g>
<g id="Layer_3">
</g>
<g id="Layer_4">
</g>
<g id="Layer_5">
	<g>
		<defs>
			<rect id="SVGID_1_" width="1440" height="500"/>
		</defs>
		<clipPath id="SVGID_2_">
			<use xlink:href="#SVGID_1_"  overflow="visible"/>
		</clipPath>
		<g clip-path="url(#SVGID_2_)">
			<rect fill="#00B5E2" width="1440" height="500"/>
		</g>
		
			<circle clip-path="url(#SVGID_2_)" fill="none" stroke="#FFFFFF" stroke-width="22" stroke-linejoin="round" stroke-miterlimit="10" cx="556" cy="328" r="101"/>
		
			<polyline clip-path="url(#SVGID_2_)" fill="none" stroke="#FFFFFF" stroke-width="22" stroke-linejoin="round" stroke-miterlimit="10" points="
			457,310 261,310 261,-61 		"/>
		
			<line clip-path="url(#SVGID_2_)" fill="none" stroke="#FFFFFF" stroke-width="22" stroke-linejoin="round" stroke-miterlimit="10" x1="442" y1="-38" x2="1555" y2="570"/>
		
			<line clip-path="url(#SVGID_2_)" fill="none" stroke="#FFFFFF" stroke-width="22" stroke-linejoin="round" stroke-miterlimit="10" x1="657" y1="328" x2="1112" y2="328"/>
		
			<line clip-path="url(#SVGID_2_)" fill="none" stroke="#FFFFFF" stroke-width="22" stroke-linejoin="round" stroke-miterlimit="10" x1="556" y1="437" x2="556" y2="593"/>
		
			<line clip-path="url(#SVGID_2_)" fill="none" stroke="#FFFFFF" stroke-width="22" stroke-linejoin="round" stroke-miterlimit="10" x1="261" y1="250" x2="-70" y2="-87"/>
		
			<polyline clip-path="url(#SVGID_2_)" fill="none" stroke="#FFFFFF" stroke-width="22" stroke-linejoin="round" stroke-miterlimit="10" points="
			952,241 952,98 1452,98 		"/>
		
			<polyline clip-path="url(#SVGID_2_)" fill="none" stroke="#FFFFFF" stroke-width="22" stroke-linejoin="round" stroke-miterlimit="10" points="
			95,86 95,402 -147,402 		"/>
		
			<polyline clip-path="url(#SVGID_2_)" fill="none" stroke="#FFFFFF" stroke-width="22" stroke-linejoin="round" stroke-miterlimit="10" points="
			884,336 884,440 1132,440 1132,673 		"/>
		
			<path clip-path="url(#SVGID_2_)" fill="none" stroke="#FFFFFF" stroke-width="22" stroke-linejoin="round" stroke-miterlimit="10" d="
			M695,100c34.687,19.069,85.12,3.52,111.119-16c37.418-28.094,45.219-97.769,0-147.966"/>
		
			<polyline clip-path="url(#SVGID_2_)" fill="none" stroke="#FFFFFF" stroke-width="22" stroke-linejoin="round" stroke-miterlimit="10" points="
			1306,434 1306,319 1526,319 		"/>
		
			<line clip-path="url(#SVGID_2_)" fill="none" stroke="#FFFFFF" stroke-width="22" stroke-linejoin="round" stroke-miterlimit="10" x1="1306" y1="319" x2="1306" y2="104"/>
		
			<line clip-path="url(#SVGID_2_)" fill="none" stroke="#FFFFFF" stroke-width="22" stroke-linejoin="round" stroke-miterlimit="10" x1="556" y1="227" x2="556" y2="-114"/>
		
			<line clip-path="url(#SVGID_2_)" fill="none" stroke="#FFFFFF" stroke-width="21" stroke-linejoin="round" stroke-miterlimit="10" x1="320" y1="319" x2="320" y2="528"/>
		
			<line clip-path="url(#SVGID_2_)" fill="none" stroke="#FFFFFF" stroke-width="21" stroke-linejoin="round" stroke-miterlimit="10" x1="1143.5" y1="89.5" x2="1143.5" y2="-23.5"/>
		
			<line clip-path="url(#SVGID_2_)" fill="none" stroke="#FFFFFF" stroke-width="15" stroke-linejoin="round" stroke-miterlimit="10" x1="958" y1="159.5" x2="1303" y2="159.5"/>
		
			<line clip-path="url(#SVGID_2_)" fill="none" stroke="#FFFFFF" stroke-width="15" stroke-linejoin="round" stroke-miterlimit="10" x1="1170.5" y1="164.5" x2="1170.5" y2="355.5"/>
		
			<line clip-path="url(#SVGID_2_)" fill="none" stroke="#FFFFFF" stroke-width="15" stroke-linejoin="round" stroke-miterlimit="10" x1="261" y1="75" x2="555.5" y2="75"/>
		
			<line clip-path="url(#SVGID_2_)" fill="none" stroke="#FFFFFF" stroke-width="15" stroke-linejoin="round" stroke-miterlimit="10" x1="105.5" y1="379.5" x2="313.5" y2="379.5"/>
		<g clip-path="url(#SVGID_2_)">
			<path fill="#FFFFFF" d="M732.745,250.974c0-11.754-9.529-21.283-21.283-21.283c-12.239,0-21.201,10.558-21.283,21.283
				c-0.066,8.624,5.62,16.155,12.512,19.397c0.106,0.05,0.248,0.112,0.387,0.173v0.423l7.739,12.899l8.307-13.053
				C727.087,267.735,732.745,260.024,732.745,250.974z"/>
			<g>
				<path fill="#00B5E2" d="M721.458,247.105l1.612-3.87l-0.806-1.29l-2.419,3.87l0.177,0.847c-1.466,1.474-1.466,2.904-1.466,8.182
					c0,5.16-0.656,5.16-1.29,5.16c-0.52,0-1.29-1.64-1.29-5.16c0-2.224-1.336-3.25-2.58-3.65V241.3h-11.609v20.638h11.609v-9.357
					c0.645,0.319,1.29,0.96,1.29,2.262c0,1.939,0.252,6.449,2.58,6.449c2.207,0,2.58-1.989,2.58-6.449
					c0-4.021,0.023-5.537,0.524-6.512l0.282,1.353l0.806-1.29C721.458,248.395,720.652,247.105,721.458,247.105z M711.461,250.974
					h-7.739v-7.739h7.739V250.974z"/>
			</g>
		</g>
		<g clip-path="url(#SVGID_2_)">
			<path fill="#FFFFFF" d="M800.745,457.974c0-11.754-9.529-21.283-21.283-21.283c-12.239,0-21.201,10.558-21.283,21.283
				c-0.066,8.624,5.62,16.155,12.512,19.397c0.106,0.05,0.248,0.112,0.387,0.173v0.423l7.739,12.899l8.307-13.053
				C795.087,474.735,800.745,467.024,800.745,457.974z"/>
			<g>
				<path fill="#00B5E2" d="M789.458,454.105l1.612-3.87l-0.806-1.29l-2.419,3.87l0.177,0.847c-1.466,1.474-1.466,2.904-1.466,8.182
					c0,5.159-0.656,5.159-1.29,5.159c-0.52,0-1.29-1.64-1.29-5.159c0-2.224-1.336-3.25-2.58-3.65V448.3h-11.609v20.638h11.609
					v-9.357c0.645,0.319,1.29,0.96,1.29,2.262c0,1.939,0.252,6.449,2.58,6.449c2.207,0,2.58-1.989,2.58-6.449
					c0-4.021,0.023-5.537,0.524-6.512l0.282,1.353l0.806-1.29C789.458,455.395,788.652,454.105,789.458,454.105z M779.461,457.974
					h-7.739v-7.739h7.739V457.974z"/>
			</g>
		</g>
		<g clip-path="url(#SVGID_2_)">
			<path fill="#FFFFFF" d="M1056.745,206.974c0-11.754-9.529-21.283-21.283-21.283c-12.239,0-21.201,10.558-21.283,21.283
				c-0.066,8.624,5.62,16.155,12.512,19.397c0.106,0.05,0.248,0.112,0.387,0.173v0.423l7.739,12.899l8.307-13.053
				C1051.087,223.735,1056.745,216.024,1056.745,206.974z"/>
			<g>
				<path fill="#00B5E2" d="M1045.458,203.105l1.612-3.87l-0.806-1.29l-2.418,3.87l0.177,0.847
					c-1.466,1.474-1.466,2.904-1.466,8.182c0,5.16-0.656,5.16-1.29,5.16c-0.52,0-1.29-1.64-1.29-5.16c0-2.224-1.336-3.25-2.58-3.65
					V197.3h-11.609v20.638h11.609v-9.357c0.646,0.319,1.29,0.96,1.29,2.262c0,1.939,0.252,6.449,2.58,6.449
					c2.207,0,2.58-1.989,2.58-6.449c0-4.021,0.022-5.537,0.524-6.512l0.282,1.353l0.806-1.29
					C1045.458,204.395,1044.652,203.105,1045.458,203.105z M1035.461,206.974h-7.739v-7.739h7.739V206.974z"/>
			</g>
		</g>
		<g clip-path="url(#SVGID_2_)">
			<path fill="#FFFFFF" d="M221.745,55.974c0-11.754-9.529-21.283-21.283-21.283c-12.239,0-21.201,10.558-21.283,21.283
				c-0.066,8.624,5.62,16.155,12.512,19.397c0.106,0.05,0.248,0.112,0.387,0.173v0.423l7.739,12.899l8.307-13.053
				C216.087,72.735,221.745,65.024,221.745,55.974z"/>
			<g>
				<path fill="#00B5E2" d="M210.458,52.105l1.612-3.87l-0.806-1.29l-2.419,3.87l0.177,0.847c-1.466,1.474-1.466,2.904-1.466,8.182
					c0,5.16-0.656,5.16-1.29,5.16c-0.52,0-1.29-1.64-1.29-5.16c0-2.224-1.336-3.25-2.58-3.65V46.3h-11.609v20.638h11.609v-9.357
					c0.645,0.319,1.29,0.96,1.29,2.262c0,1.939,0.252,6.449,2.58,6.449c2.207,0,2.58-1.989,2.58-6.449
					c0-4.021,0.023-5.537,0.524-6.512l0.282,1.353l0.806-1.29C210.458,53.395,209.652,52.105,210.458,52.105z M200.461,55.974
					h-7.739v-7.739h7.739V55.974z"/>
			</g>
		</g>
		<g clip-path="url(#SVGID_2_)">
			<path fill="#FFFFFF" d="M67.745,329.974c0-11.754-9.529-21.283-21.283-21.283c-12.239,0-21.201,10.558-21.283,21.283
				c-0.066,8.624,5.62,16.155,12.512,19.397c0.106,0.05,0.248,0.112,0.387,0.173v0.423l7.739,12.899l8.307-13.053
				C62.087,346.735,67.745,339.024,67.745,329.974z"/>
			<g>
				<path fill="#00B5E2" d="M56.458,326.105l1.612-3.87l-0.806-1.29l-2.419,3.87l0.177,0.847c-1.466,1.474-1.466,2.904-1.466,8.182
					c0,5.159-0.656,5.159-1.29,5.159c-0.52,0-1.29-1.64-1.29-5.159c0-2.224-1.336-3.25-2.58-3.65V320.3H36.787v20.638h11.609v-9.357
					c0.645,0.319,1.29,0.96,1.29,2.262c0,1.939,0.252,6.449,2.58,6.449c2.207,0,2.58-1.989,2.58-6.449
					c0-4.021,0.023-5.537,0.524-6.512l0.282,1.353l0.806-1.29C56.458,327.395,55.652,326.105,56.458,326.105z M46.461,329.974
					h-7.739v-7.739h7.739V329.974z"/>
			</g>
		</g>
		<g clip-path="url(#SVGID_2_)">
			<path fill="#FFFFFF" d="M399.768,383.108c0-11.754-9.529-21.283-21.283-21.283c-12.239,0-21.201,10.558-21.283,21.283
				c-0.066,8.624,5.62,16.155,12.512,19.397c0.106,0.05,0.248,0.112,0.387,0.173v0.423L377.84,416l8.307-13.053
				C394.11,399.868,399.768,392.158,399.768,383.108z"/>
			<g>
				<path fill="#00B5E2" d="M388.481,379.239l1.612-3.87l-0.806-1.29l-2.419,3.87l0.177,0.847c-1.466,1.474-1.466,2.904-1.466,8.182
					c0,5.16-0.656,5.16-1.29,5.16c-0.52,0-1.29-1.64-1.29-5.16c0-2.224-1.336-3.25-2.58-3.65v-9.894h-11.609v20.638h11.609v-9.357
					c0.645,0.319,1.29,0.96,1.29,2.262c0,1.939,0.252,6.449,2.58,6.449c2.207,0,2.58-1.989,2.58-6.449
					c0-4.021,0.023-5.537,0.524-6.512l0.282,1.353l0.806-1.29C388.481,380.528,387.675,379.239,388.481,379.239z M378.485,383.108
					h-7.739v-7.739h7.739V383.108z"/>
			</g>
		</g>
		<g clip-path="url(#SVGID_2_)">
			<path fill="#FFFFFF" d="M209.768,441.108c0-11.754-9.529-21.283-21.283-21.283c-12.239,0-21.201,10.558-21.283,21.283
				c-0.066,8.624,5.62,16.155,12.512,19.397c0.106,0.05,0.248,0.112,0.387,0.173v0.423L187.84,474l8.307-13.053
				C204.11,457.868,209.768,450.158,209.768,441.108z"/>
			<g>
				<path fill="#00B5E2" d="M198.481,437.239l1.612-3.87l-0.806-1.29l-2.419,3.87l0.176,0.847c-1.466,1.474-1.466,2.904-1.466,8.182
					c0,5.16-0.656,5.16-1.29,5.16c-0.52,0-1.29-1.64-1.29-5.16c0-2.224-1.336-3.25-2.58-3.65v-9.894h-11.609v20.638h11.609v-9.357
					c0.645,0.319,1.29,0.96,1.29,2.262c0,1.939,0.252,6.449,2.58,6.449c2.207,0,2.58-1.989,2.58-6.449
					c0-4.021,0.023-5.537,0.524-6.512l0.282,1.353l0.806-1.29C198.481,438.528,197.675,437.239,198.481,437.239z M188.485,441.108
					h-7.739v-7.739h7.739V441.108z"/>
			</g>
		</g>
		<g clip-path="url(#SVGID_2_)">
			<path fill="#FFFFFF" d="M836.799,422.725c0-11.754-9.529-21.283-21.283-21.283c-12.239,0-21.201,10.558-21.283,21.283
				c-0.066,8.624,5.62,16.155,12.511,19.397c0.106,0.05,0.248,0.112,0.387,0.173v0.423l7.739,12.899l8.307-13.053
				C831.141,439.485,836.799,431.775,836.799,422.725z"/>
			<g>
				<path fill="#00B5E2" d="M823.654,420.256l1.46-3.504l-0.73-1.168l-2.19,3.504l0.16,0.767c-1.327,1.335-1.328,2.63-1.328,7.409
					c0,4.672-0.594,4.672-1.168,4.672c-0.471,0-1.168-1.485-1.168-4.672c0-2.014-1.209-2.943-2.336-3.305V415h-10.513v18.689h10.513
					v-8.473c0.584,0.289,1.168,0.869,1.168,2.049c0,1.756,0.228,5.84,2.336,5.84c1.999,0,2.336-1.801,2.336-5.84
					c0-3.641,0.02-5.014,0.475-5.897l0.255,1.225l0.73-1.168C823.654,421.424,822.924,420.256,823.654,420.256z M814.602,423.76
					h-7.008v-7.008h7.008V423.76z"/>
			</g>
		</g>
		<g clip-path="url(#SVGID_2_)">
			<path fill="#FFFFFF" d="M724.799,33.725c0-11.754-9.529-21.283-21.283-21.283c-12.239,0-21.201,10.558-21.283,21.283
				c-0.066,8.624,5.62,16.155,12.511,19.397c0.106,0.05,0.248,0.112,0.387,0.173v0.423l7.739,12.899l8.307-13.053
				C719.141,50.485,724.799,42.775,724.799,33.725z"/>
			<g>
				<path fill="#00B5E2" d="M711.654,31.256l1.46-3.504l-0.73-1.168l-2.19,3.504l0.16,0.767c-1.327,1.335-1.328,2.63-1.328,7.409
					c0,4.672-0.594,4.672-1.168,4.672c-0.471,0-1.168-1.485-1.168-4.672c0-2.014-1.209-2.943-2.336-3.305V26h-10.513v18.689h10.513
					v-8.473c0.584,0.289,1.168,0.869,1.168,2.049c0,1.756,0.228,5.84,2.336,5.84c1.999,0,2.336-1.801,2.336-5.84
					c0-3.641,0.02-5.014,0.475-5.897l0.255,1.225l0.73-1.168C711.654,32.424,710.924,31.256,711.654,31.256z M702.602,34.761h-7.008
					v-7.008h7.008V34.761z"/>
			</g>
		</g>
		<g clip-path="url(#SVGID_2_)">
			<path fill="#FFFFFF" d="M1415.799,28.725c0-11.754-9.529-21.283-21.283-21.283c-12.239,0-21.201,10.558-21.283,21.283
				c-0.066,8.624,5.62,16.155,12.511,19.397c0.106,0.05,0.248,0.112,0.387,0.173v0.423l7.739,12.899l8.307-13.053
				C1410.141,45.485,1415.799,37.775,1415.799,28.725z"/>
			<g>
				<path fill="#00B5E2" d="M1402.654,26.256l1.46-3.504l-0.73-1.168l-2.19,3.504l0.16,0.767c-1.327,1.335-1.328,2.63-1.328,7.409
					c0,4.672-0.594,4.672-1.168,4.672c-0.471,0-1.168-1.485-1.168-4.672c0-2.014-1.209-2.943-2.336-3.305V21h-10.513v18.689h10.513
					v-8.473c0.584,0.289,1.168,0.869,1.168,2.049c0,1.756,0.228,5.84,2.336,5.84c1.999,0,2.336-1.801,2.336-5.84
					c0-3.641,0.02-5.014,0.475-5.897l0.255,1.225l0.73-1.168C1402.654,27.424,1401.924,26.256,1402.654,26.256z M1393.602,29.76
					h-7.008v-7.008h7.008V29.76z"/>
			</g>
		</g>
		<g clip-path="url(#SVGID_2_)">
			<path fill="#FFFFFF" d="M467.817,180.283c0-11.754-9.529-21.283-21.283-21.283c-12.239,0-21.201,10.558-21.283,21.283
				c-0.066,8.624,5.62,16.155,12.512,19.397c0.106,0.05,0.248,0.112,0.387,0.173v0.423l7.739,12.899l8.307-13.053
				C462.159,197.043,467.817,189.333,467.817,180.283z"/>
			<g>
				<path fill="#00B5E2" d="M456.53,176.413l1.612-3.87l-0.806-1.29l-2.419,3.87l0.177,0.847c-1.466,1.474-1.466,2.904-1.466,8.182
					c0,5.16-0.656,5.16-1.29,5.16c-0.52,0-1.29-1.64-1.29-5.16c0-2.224-1.336-3.25-2.58-3.65v-9.894h-11.609v20.638h11.609v-9.357
					c0.645,0.319,1.29,0.96,1.29,2.262c0,1.939,0.252,6.449,2.58,6.449c2.207,0,2.58-1.989,2.58-6.449
					c0-4.021,0.023-5.537,0.524-6.512l0.282,1.353l0.806-1.29C456.53,177.703,455.724,176.413,456.53,176.413z M446.533,180.283
					h-7.739v-7.739h7.739V180.283z"/>
			</g>
		</g>
		<g clip-path="url(#SVGID_2_)">
			<path fill="#FFFFFF" d="M671.817,158.283c0-11.754-9.529-21.283-21.283-21.283c-12.239,0-21.201,10.558-21.283,21.283
				c-0.066,8.624,5.62,16.155,12.511,19.397c0.106,0.05,0.248,0.112,0.387,0.173v0.423l7.739,12.899l8.307-13.053
				C666.159,175.043,671.817,167.333,671.817,158.283z"/>
			<g>
				<path fill="#00B5E2" d="M660.53,154.413l1.612-3.87l-0.806-1.29l-2.419,3.87l0.177,0.847c-1.466,1.474-1.466,2.904-1.466,8.182
					c0,5.16-0.656,5.16-1.29,5.16c-0.52,0-1.29-1.64-1.29-5.16c0-2.224-1.336-3.25-2.58-3.65v-9.894h-11.609v20.638h11.609v-9.357
					c0.645,0.319,1.29,0.96,1.29,2.262c0,1.939,0.252,6.449,2.58,6.449c2.207,0,2.58-1.989,2.58-6.449
					c0-4.021,0.023-5.537,0.524-6.512l0.282,1.353l0.806-1.29C660.53,155.703,659.724,154.413,660.53,154.413z M650.533,158.283
					h-7.739v-7.739h7.739V158.283z"/>
			</g>
		</g>
		<g clip-path="url(#SVGID_2_)">
			<path fill="#FFFFFF" d="M1425.817,388.283c0-11.754-9.529-21.283-21.283-21.283c-12.239,0-21.201,10.558-21.283,21.283
				c-0.066,8.624,5.62,16.155,12.512,19.397c0.106,0.05,0.248,0.112,0.387,0.173v0.423l7.739,12.899l8.307-13.053
				C1420.159,405.043,1425.817,397.333,1425.817,388.283z"/>
			<g>
				<path fill="#00B5E2" d="M1414.53,384.413l1.612-3.87l-0.806-1.29l-2.419,3.87l0.177,0.847c-1.466,1.474-1.466,2.904-1.466,8.182
					c0,5.16-0.656,5.16-1.29,5.16c-0.52,0-1.29-1.64-1.29-5.16c0-2.224-1.335-3.25-2.58-3.65v-9.894h-11.609v20.638h11.609v-9.357
					c0.645,0.319,1.29,0.96,1.29,2.262c0,1.939,0.252,6.449,2.58,6.449c2.207,0,2.58-1.989,2.58-6.449
					c0-4.021,0.023-5.537,0.524-6.512l0.282,1.353l0.806-1.29C1414.53,385.703,1413.724,384.413,1414.53,384.413z M1404.533,388.283
					h-7.739v-7.739h7.739V388.283z"/>
			</g>
		</g>
		<g clip-path="url(#SVGID_2_)">
			<path fill="#FFFFFF" d="M55.817,92.283C55.817,80.529,46.288,71,34.534,71c-12.239,0-21.201,10.558-21.283,21.283
				c-0.066,8.624,5.62,16.155,12.512,19.397c0.106,0.05,0.248,0.112,0.387,0.173v0.423l7.739,12.899l8.307-13.053
				C50.159,109.043,55.817,101.333,55.817,92.283z"/>
			<g>
				<path fill="#00B5E2" d="M44.53,88.413l1.612-3.87l-0.806-1.29l-2.419,3.87l0.177,0.847c-1.466,1.474-1.466,2.904-1.466,8.182
					c0,5.16-0.656,5.16-1.29,5.16c-0.52,0-1.29-1.64-1.29-5.16c0-2.224-1.336-3.25-2.58-3.65v-9.894H24.859v20.638h11.609V93.89
					c0.645,0.319,1.29,0.96,1.29,2.262c0,1.939,0.252,6.449,2.58,6.449c2.207,0,2.58-1.989,2.58-6.449
					c0-4.021,0.023-5.537,0.524-6.512l0.282,1.353l0.806-1.29C44.53,89.703,43.724,88.413,44.53,88.413z M34.533,92.283h-7.739
					v-7.739h7.739V92.283z"/>
			</g>
		</g>
	</g>
</g>
</svg>
